<svg id="Graphics" xmlns="http://www.w3.org/2000/svg" xmlns:xlink="http://www.w3.org/1999/xlink" viewBox="0 0 325 193"><defs><style>.cls-1{fill:#333;}.cls-2{fill:#0b3051;}.cls-3{fill:url(#linear-gradient);}.cls-4{fill:#5aaef9;}.cls-5{fill:#b4d9f5;}.cls-6{fill:#67b2ec;}.cls-7{fill:#fff;}.cls-10,.cls-11,.cls-8,.cls-9{fill:none;stroke-miterlimit:10;}.cls-10,.cls-8,.cls-9{stroke:#fff;}.cls-8{stroke-dasharray:4.03 2.01;}.cls-9{stroke-width:1.04px;}.cls-10,.cls-9{opacity:0.4;}.cls-11{stroke:#0b3051;}</style><linearGradient id="linear-gradient" x1="163" y1="107.7" x2="163" y2="16.3" gradientUnits="userSpaceOnUse"><stop offset="0" stop-color="#0982fe"/><stop offset="1" stop-color="#3ca1d2"/></linearGradient></defs><title>HIG-tgvOS-MainPage_2x</title><polygon class="cls-1" points="222.98 183 103.02 183 98 190 98 192 228 192 228 190 222.98 183"/><rect class="cls-2" x="4" y="3" width="318" height="178"/><rect class="cls-3" x="4" y="3" width="318" height="177"/><rect class="cls-4" x="138.5" y="102.5" width="50" height="50" rx="2.5" ry="2.5"/><path class="cls-5" d="M186,103a2,2,0,0,1,2,2v45a2,2,0,0,1-2,2H141a2,2,0,0,1-2-2V105a2,2,0,0,1,2-2h45m0-1H141a3,3,0,0,0-3,3v45a3,3,0,0,0,3,3h45a3,3,0,0,0,3-3V105a3,3,0,0,0-3-3Z"/><rect class="cls-4" x="138.5" y="44.5" width="50" height="50" rx="2.5" ry="2.5"/><path class="cls-5" d="M186,45a2,2,0,0,1,2,2V92a2,2,0,0,1-2,2H141a2,2,0,0,1-2-2V47a2,2,0,0,1,2-2h45m0-1H141a3,3,0,0,0-3,3V92a3,3,0,0,0,3,3h45a3,3,0,0,0,3-3V47a3,3,0,0,0-3-3Z"/><rect class="cls-5" x="4" y="4" width="318" height="23"/><rect class="cls-6" x="99" y="13" width="21" height="5"/><rect class="cls-7" x="130" y="13" width="29" height="5"/><rect class="cls-6" x="170" y="13" width="21" height="5"/><rect class="cls-6" x="206" y="13" width="21" height="5"/><path class="cls-4" d="M19.5,180.5V173a2.5,2.5,0,0,1,2.5-2.5H156a2.5,2.5,0,0,1,2.5,2.5v7.5Z"/><path class="cls-5" d="M156,171a2,2,0,0,1,2,2v7H20v-7a2,2,0,0,1,2-2H156m0-1H22a3,3,0,0,0-3,3v8H159v-8a3,3,0,0,0-3-3Z"/><path class="cls-4" d="M168.5,180.5V173a2.5,2.5,0,0,1,2.5-2.5H304a2.5,2.5,0,0,1,2.5,2.5v7.5Z"/><path class="cls-5" d="M304,171a2,2,0,0,1,2,2v7H169v-7a2,2,0,0,1,2-2H304m0-1H171a3,3,0,0,0-3,3v8H307v-8a3,3,0,0,0-3-3Z"/><path class="cls-4" d="M315.5,180.5V173a2.5,2.5,0,0,1,2.5-2.5h3.5v10Z"/><path class="cls-5" d="M321,171v9h-5v-7a2,2,0,0,1,2-2h3m1-1h-4a3,3,0,0,0-3,3v8h7V170Z"/><rect class="cls-6" x="20" y="34" width="30" height="6"/><rect class="cls-6" x="197" y="34" width="61" height="6"/><rect class="cls-4" x="19.5" y="43.5" width="110" height="110" rx="3" ry="3"/><rect class="cls-8" x="19.5" y="43.5" width="110" height="110" rx="3" ry="3"/><rect class="cls-4" x="197.5" y="44.5" width="109" height="109" rx="2.5" ry="2.5"/><path class="cls-5" d="M304,45a2,2,0,0,1,2,2V151a2,2,0,0,1-2,2H200a2,2,0,0,1-2-2V47a2,2,0,0,1,2-2H304m0-1H200a3,3,0,0,0-3,3V151a3,3,0,0,0,3,3H304a3,3,0,0,0,3-3V47a3,3,0,0,0-3-3Z"/><path class="cls-4" d="M318,152.5a2.5,2.5,0,0,1-2.5-2.5V105a2.5,2.5,0,0,1,2.5-2.5h3.5v50Z"/><path class="cls-5" d="M321,103v49h-3a2,2,0,0,1-2-2V105a2,2,0,0,1,2-2h3m1-1h-4a3,3,0,0,0-3,3v45a3,3,0,0,0,3,3h4V102Z"/><path class="cls-4" d="M318,94.5a2.5,2.5,0,0,1-2.5-2.5V47a2.5,2.5,0,0,1,2.5-2.5h3.5v50Z"/><path class="cls-5" d="M321,45V94h-3a2,2,0,0,1-2-2V47a2,2,0,0,1,2-2h3m1-1h-4a3,3,0,0,0-3,3V92a3,3,0,0,0,3,3h4V44Z"/><line class="cls-9" x1="306.5" y1="27" x2="306.5" y2="181"/><line class="cls-9" x1="315.5" y1="27" x2="315.5" y2="181"/><rect class="cls-5" x="160" y="71" width="8" height="3"/><rect class="cls-5" x="152" y="64" width="23" height="5"/><rect class="cls-5" x="160" y="131" width="8" height="3"/><rect class="cls-5" x="152" y="124" width="23" height="5"/><line class="cls-10" x1="138.5" y1="27" x2="138.5" y2="170"/><line class="cls-10" x1="188.5" y1="27" x2="188.5" y2="170"/><line class="cls-10" x1="197.5" y1="26" x2="197.5" y2="170"/><line class="cls-10" x1="129.5" y1="27" x2="129.5" y2="170"/><line class="cls-11" x1="4.5" y1="95" x2="4.5" y2="102"/><line class="cls-11" x1="18.5" y1="95" x2="18.5" y2="102"/><line class="cls-11" x1="5" y1="98.5" x2="18" y2="98.5"/><line class="cls-11" x1="78" y1="27.5" x2="71" y2="27.5"/><line class="cls-11" x1="78" y1="42.5" x2="71" y2="42.5"/><line class="cls-11" x1="74.5" y1="28" x2="74.5" y2="42"/><line class="cls-11" x1="78" y1="154.5" x2="71" y2="154.5"/><line class="cls-11" x1="78" y1="169.5" x2="71" y2="169.5"/><line class="cls-11" x1="74.5" y1="155" x2="74.5" y2="169"/><line class="cls-11" x1="130.5" y1="95" x2="130.5" y2="102"/><line class="cls-11" x1="137.5" y1="95" x2="137.5" y2="102"/><line class="cls-11" x1="130" y1="98.5" x2="137" y2="98.5"/><path class="cls-1" d="M321,4V180H4V4H321m2-4H2A2,2,0,0,0,0,2V182a2,2,0,0,0,2,2H323a2,2,0,0,0,2-2V2a2,2,0,0,0-2-2Z"/><path class="cls-2" d="M321,4V180H4V4H321m1-1H3V181H322V3Z"/></svg>