<svg id="Layer_10" data-name="Layer 10" xmlns="http://www.w3.org/2000/svg" xmlns:xlink="http://www.w3.org/1999/xlink" viewBox="0 0 112 191"><defs><style>.cls-1{fill:#e1e1e1;}.cls-2{fill:#b3b3b3;}.cls-3{fill:#0b3051;}.cls-4{fill:url(#linear-gradient);}.cls-5{fill:#5aaef9;}.cls-6{fill:#b4d9f5;}.cls-10,.cls-11,.cls-12,.cls-7,.cls-9{fill:none;stroke-miterlimit:10;}.cls-7,.cls-9{stroke:#fff;}.cls-10,.cls-7,.cls-9{stroke-linecap:round;}.cls-7{stroke-width:1.11px;}.cls-8{fill:#fff;}.cls-9{stroke-width:3.88px;}.cls-10{stroke:#5aaef9;stroke-width:2.77px;}.cls-11,.cls-12{stroke:#b4d9f5;}.cls-11{stroke-width:0.55px;}.cls-12{stroke-width:1px;}</style><linearGradient id="linear-gradient" x1="53.5" y1="161.22" x2="53.5" y2="9.62" gradientUnits="userSpaceOnUse"><stop offset="0" stop-color="#0982fe"/><stop offset="1" stop-color="#3ca1d2"/></linearGradient></defs><title>HIG-watchOS-MainPage</title><path class="cls-1" d="M30.32,1.12c-7.5,1.17-7.68,6.7-7.68,6.7s-.45,2-1.74,14.82A24.71,24.71,0,0,1,19.48,29c-.87,2.3-2,4.74-4,6.22L11,38l42-3.34L95,38l-4.44-2.76c-2.07-1.48-3.17-3.92-4-6.22a24.71,24.71,0,0,1-1.42-6.38C83.81,9.81,83.36,7.82,83.36,7.82s-.18-5.53-7.68-6.7h0a230,230,0,0,0-45.29,0Z"/><path class="cls-1" d="M75.68,189.88c7.5-1.17,7.68-6.7,7.68-6.7s.45-2,1.74-14.82A24.71,24.71,0,0,1,86.52,162c.87-2.3,2-4.74,4-6.22L95,153l-42,3.34L11,153l4.44,2.76c2.07,1.48,3.17,3.92,4,6.22a24.71,24.71,0,0,1,1.42,6.38c1.29,12.83,1.74,14.82,1.74,14.82s.18,5.53,7.68,6.7h0a230,230,0,0,0,45.29,0Z"/><path class="cls-2" d="M109.2,62H107V58.88A24.8,24.8,0,0,0,82.27,34H24.73A24.8,24.8,0,0,0,0,58.88v73.24A24.8,24.8,0,0,0,24.73,157H82.27A24.8,24.8,0,0,0,107,132.12V83h2.21A2.79,2.79,0,0,0,112,80.21V64.8A2.81,2.81,0,0,0,109.2,62Z"/><rect class="cls-3" x="4" y="38" width="99" height="115" rx="22.51" ry="22.51"/><rect class="cls-4" x="12" y="46" width="83" height="99" rx="15.17" ry="15.17"/><circle class="cls-5" cx="53" cy="95.5" r="39"/><path class="cls-6" d="M53,56.5H51.81l-1,0,0,.56c.73,0,1.47-.06,2.2-.06V56.5Zm-3.34.14-.18,0h-.31l-.52.05h-.43l-.77.1.08.55c.72-.1,1.45-.18,2.18-.24l-.05-.56Zm-3.31.43c-.74.12-1.47.27-2.19.44l.13.54c.71-.17,1.43-.31,2.15-.44l-.09-.54Zm-3.27.7q-1,.27-2,.6h-.1l.17.53c.7-.23,1.41-.43,2.11-.62l-.14-.54Zm-3.19,1-.36.13h0l-.07,0h-.33l-.05,0h0l-.05,0h0l-.07,0h0l-.07,0h0l-.06,0h0l-.86.35.22.51c.67-.28,1.36-.55,2-.8l-.18-.52ZM36.79,60h-.18l0,0h0l-.05,0h0l-.06,0h0l0,0h0l-.06,0h-.3l0,0h0l-1,.53.26.49c.65-.34,1.31-.66,2-1l-.23-.5Zm-3,1.52h0l-.06,0h0l0,0h0l0,0h-.22l0,0h0l0,0h0l0,0h0l-.06,0h0L33,62h0l-.73.45h0l-.06,0h0l0,0h-.21l.3.47c.61-.4,1.25-.78,1.88-1.14l-.28-.48ZM31,63.31l-1.11.78h0l-.07.06h-.18l0,0h0l-.38.29.34.44q.87-.68,1.77-1.29L31,63.31Zm-2.67,2c-.58.47-1.14,1-1.69,1.46l.38.41c.54-.49,1.1-1,1.66-1.44l-.35-.43Zm-2.5,2.23-.39.39h0l-.05,0h0l0,0h-.05l0,0h0l0,0h0l0,0h-.48l0,0h0l0,0h0l0,0h0l-.21.23.41.37c.49-.53,1-1.06,1.53-1.57l-.39-.4ZM23.52,70c-.49.56-1,1.13-1.41,1.72l.44.34c.44-.57.91-1.15,1.39-1.7L23.52,70Zm-2.08,2.61c-.44.6-.86,1.22-1.26,1.84l.47.3c.39-.61.81-1.22,1.24-1.81l-.45-.33Zm-1.85,2.79c-.17.28-.33.56-.49.84h0l0,0h0v0h-.16v0h0l0,0h0v0h0l0,0h0v0h0l0,.06h0l0,.07h0l-.19.35.5.26c.34-.65.7-1.29,1.08-1.91l-.48-.29ZM18,78.3l-.24.48h0l0,.06h0v0h0l0,0h0v0h0v0h0l0,.05h0v0h0l0,.06h0v0h0l0,.09h0c-.11.23-.21.47-.31.7h0v0h0l0,0h0v0h0s0,.11-.07.17l.51.21c.29-.67.6-1.34.92-2L18,78.3Zm-1.35,3.06c-.14.35-.27.71-.39,1.07h0a.26.26,0,0,0,0,.08h0v0h0l0,.07h0v0h0v0h0v0h0v0h0L16,83h0l-.15.43.53.17c.23-.69.48-1.39.74-2.07l-.52-.2Zm-1.07,3.16c0,.12-.07.24-.11.36h0v0h0l0,0h0v0h0v0h0l0,0h0v0h0v0h0c-.13.48-.25,1-.37,1.47l.54.12c.17-.71.36-1.42.56-2.12l-.53-.16Zm-.8,3.25c-.15.72-.27,1.46-.38,2.19l.55.08c.1-.72.23-1.45.37-2.16l-.54-.11Zm-.52,3.3c-.08.73-.15,1.47-.19,2.22l.56,0q.06-1.09.18-2.19l-.55-.06ZM14,94.4c0,.21,0,.41,0,.62h0v0h0v.11h0v0h0v0h0v0h0v0h0v0h0v0h0v0h0v0h0v0h0v.09h0c0,.18,0,.36,0,.53h0v.17h.55c0-.37,0-.75,0-1.12s0-.72,0-1.08l-.55,0Zm.6,3.31-.56,0,0,.41h0v0h0v0h0v0h0c0,.5.08,1,.14,1.49h0v0h0l.56-.07c-.09-.72-.15-1.46-.19-2.19ZM15,101l-.55.08c.08.57.17,1.13.27,1.69h0l0,.08h0v0h0v0h0v0h0v0h0a1.84,1.84,0,0,1,0,.25l.55-.11c-.14-.72-.27-1.45-.37-2.17Zm.6,3.24-.54.13c.09.4.2.81.3,1.21h0l0,.1h0v0h0v0h0l0,.07h0v0h0v0h0l0,0h0v0h0v0h0v0h0l0,.06h0a2.29,2.29,0,0,0,.08.28l.53-.16c-.2-.7-.39-1.41-.56-2.12Zm.89,3.17-.53.18.09.28h0v0h0v0h0l0,0h0v0h0v0h0v0h0v0h0v0h0v0h0v0h0v0h.06v0h0v0h0v0h0v0h0l0,0h0v0h0v0h0c.1.26.2.53.31.79l.51-.2c-.26-.68-.51-1.37-.73-2.07Zm1.15,3.09-.51.22,0,0h0v0h0v0h.06v0h0l0,0h0l0,.07h0l.24.53h0l0,.07h0l0,0h0v0h0v0h0l0,0h0v0h0l.24.5.5-.25c-.32-.65-.63-1.32-.91-2Zm1.41,3-.49.26c.35.66.72,1.31,1.1,1.94l.48-.29c-.38-.62-.75-1.26-1.09-1.91Zm1.67,2.85-.47.3c.33.5.67,1,1,1.49h0l0,0h0v0h.13l0,0h0l0,0,.45-.32c-.43-.59-.85-1.2-1.24-1.81Zm1.9,2.68-.44.35c.42.54.85,1.07,1.3,1.59h.07l0,0,.42-.37c-.48-.55-.94-1.12-1.39-1.7Zm2.12,2.52-.41.38c.35.38.71.75,1.07,1.11h0l.05,0h0l0,0h0v0h.12l0,0h0l0,0h0l.1.1.39-.4c-.53-.51-1-1-1.54-1.58ZM27,123.84l-.38.41q.51.48,1.05.93h0l.06,0h0l0,0h.05l0,0h.19l0,0h0l.2.17.36-.43c-.57-.46-1.13-1-1.66-1.44ZM29.55,126l-.34.44.66.51h0l.06,0h0l0,0h.14l0,0h0l.06,0h0l.52.36h0l0,0h.12l.07,0,.31-.46c-.6-.41-1.2-.84-1.77-1.29Zm2.69,1.9-.3.47.07,0h0l0,0h0l0,0h.14l0,0h0c.45.28.9.56,1.36.82h0l.06,0h.07l.27-.49c-.64-.35-1.27-.74-1.88-1.13Zm2.84,1.66-.26.49c.66.35,1.33.68,2,1l.23-.51c-.66-.3-1.32-.63-2-1Zm3,1.41-.22.52.92.37h0l.08,0h0l.06,0h0l.07,0h0l.85.31.19-.52c-.69-.25-1.38-.51-2-.8Zm3.09,1.15-.17.53q1.05.34,2.13.63l.14-.54c-.7-.19-1.41-.39-2.1-.62Zm3.17.88-.12.54c.72.17,1.45.31,2.18.44l.09-.55c-.71-.12-1.44-.27-2.15-.43Zm3.24.6-.08.55.49.07h.94l.26,0h.53l0-.55c-.73-.06-1.46-.15-2.18-.25Zm3.28.32,0,.56c.56,0,1.12.05,1.69.06H53v-.56c-.72,0-1.45,0-2.16-.06Zm5.49-.08c-.73.06-1.47.11-2.2.13l0,.55.79,0h.33l1.1-.07,0-.56Zm3.26-.42c-.71.12-1.45.23-2.17.31l.06.56c.65-.08,1.28-.17,1.92-.27h.29l-.1-.55Zm3.22-.7c-.7.18-1.42.35-2.14.5l.11.54,1.09-.23H62l.06,0h.51l.08,0h0l.3-.08-.14-.54Zm3.15-1c-.69.25-1.39.48-2.09.68l.16.54.2-.06H65l1.07-.37h.1L66,131.7ZM69,130.46c-.66.31-1.34.59-2,.86l.2.52c.69-.27,1.38-.56,2-.87l-.23-.51Zm2.93-1.5c-.63.36-1.29.71-1.94,1l.25.5,1.37-.71h0l.05,0h.11l.43-.23-.28-.49Zm2.79-1.75c-.6.42-1.22.82-1.84,1.2l.29.47c.32-.19.63-.39.94-.59h.13l0,0h0l.73-.49-.32-.46Zm2.64-2q-.86.7-1.74,1.35L76,127H76l0,0h0l1.22-.93h.1l.33-.26-.35-.44ZM79.82,123c-.52.51-1.06,1-1.61,1.49l.36.42h.16l0,0h0l0,0h0v0h.93v0h0l0,0h0l0,0h0l.21-.2-.39-.4Zm2.26-2.4c-.47.55-1,1.1-1.48,1.62l.4.39c.52-.53,1-1.08,1.5-1.64l-.42-.37Zm2-2.58c-.43.59-.88,1.18-1.34,1.74l.43.35,0-.05h0l0,0h0l0,0h.15v0h0l0,0h0l0,0h0l.06-.09h0c.29-.37.57-.74.85-1.12l-.45-.33ZM86,115.31c-.38.63-.78,1.25-1.19,1.85l.46.32.24-.36h0l0,0h.09l0,0h0l0-.06h0c.17-.26.33-.52.49-.78h0v0h0l0,0h0v0h0c0-.08.09-.16.14-.24l-.48-.29Zm1.58-2.89c-.32.66-.67,1.31-1,2l.49.27c.22-.39.44-.79.64-1.19h0v0h0l0,0h0v0h0v0h0v0h0v0h.08l0,0h0v0h0l.17-.33-.5-.25Zm1.32-3c-.26.68-.55,1.36-.85,2l.5.23q.25-.54.48-1.08h0v0h0l0,0h0v0h0v0h.1l0-.05h0s0,0,0,0h0l0-.07h0l0,0h0v0h0v0h0v0h0l-.52-.2Zm1.06-3.12c-.21.7-.43,1.4-.68,2.09l.53.18c0-.09.07-.19.1-.29h0v0h0v0h0v0h0l0-.06h0q.27-.8.51-1.62l-.53-.15Zm.78-3.2c-.14.71-.3,1.43-.49,2.14l.54.14a1.46,1.46,0,0,0,.05-.2h0v0h0v0h0v0h0v0h0v0h0v0h0v-.05h0l0-.07h0v0h0v0h0v0h0v0h0v0h0v0h.06v0h0v0h0v0h0v0h0v0h0v0h0v0h0v0h0s0,0,0-.07h0v0h0a.64.64,0,0,1,0-.07h0v0h0v0h0v0h0v0h0v0h0v0h0v0h0v0h0l-.55-.11Zm.51-3.26c-.08.73-.18,1.46-.31,2.18l.55.09c0-.13,0-.27.07-.41h0v0h0v0h0c0-.37.11-.74.15-1.11h0v0h0v0h0c0-.12,0-.24,0-.36l-.55-.07Zm.23-3.28c0,.73-.06,1.47-.12,2.19l.55.05c0-.15,0-.3,0-.45h0v0h0v0h0v0h0v0h0v-.07h0v0h0c0-.34,0-.68,0-1h0v0h0v-.07h0a2,2,0,0,1,0-.25Zm.5-3.33-.55,0c0,.73.06,1.47.06,2.2H92c0-.22,0-.43,0-.64h0v0h0v-.11h0v0h0v0h0v-.06h0v0h0v0h0v0h0v0h0v-.07h0v0h0v0h0v0h0v-.14h0c0-.21,0-.41,0-.62Zm-.33-3.33-.55.08c.1.72.19,1.46.25,2.19l.55,0V92h0v0h0s0-.05,0-.08h0v0h0v0h0v0h0v0h0c0-.42-.09-.85-.15-1.27h0v0h0v0h0l0-.18ZM91,86.61l-.54.13c.16.71.31,1.43.44,2.15l.55-.1c-.13-.73-.28-1.46-.45-2.18Zm-.9-3.22-.53.17c.23.7.44,1.41.62,2.11l.54-.14c-.19-.72-.4-1.44-.63-2.14Zm-1.17-3.13-.51.22c.28.67.55,1.36.8,2l.52-.19c-.09-.27-.19-.53-.29-.79h0a.36.36,0,0,0,0-.09h0l0-.08h0l0-.07h0v0h0l0-.08h0v0h0l0-.06h0v0h0l-.33-.81Zm-1.44-3-.49.26c.34.64.67,1.3,1,2l.51-.24H88.4v0h0v0h0l0,0h0l0,0h0v0h0l0-.07h0l0-.07h0l0,0h0l0-.06h0v0h0l0-.08h0l0-.08h0l0-.08h0l0-.08h0v0h0l0-.06h0l0,0h0v0h0l0,0h0l0,0h0l0,0h0l0,0h0v0h0v0h-.1Zm-1.69-2.89-.47.31c.4.61.78,1.24,1.14,1.87l.49-.27,0,0h0c-.36-.62-.74-1.24-1.13-1.85Zm-1.93-2.72-.44.34c.45.57.88,1.17,1.29,1.77l.46-.31-.49-.71h0l-.1-.14h0l-.1-.14h0l0-.07h0v0h0l-.09-.13h0l-.05-.06h0l0,0h0l0,0h0l0,0H84v0h0v0h0l0,0Zm-2.16-2.56-.41.38c.5.54,1,1.1,1.44,1.66l.43-.35c-.47-.58-1-1.14-1.46-1.69Zm-2.36-2.35-.38.41c.54.49,1.07,1,1.58,1.52l.4-.38q-.3-.32-.6-.6h0l0,0h0l0,0h0l0,0H80v0h-.38l0,0h0l0,0h0l0,0h0l0,0h0l-.07-.06Zm-2.56-2.15-.34.44c.57.44,1.15.91,1.7,1.39l.36-.43h0l0,0h0l0,0h0c-.52-.45-1.06-.88-1.6-1.3ZM74,62.65l-.3.47c.62.39,1.23.81,1.82,1.24l.32-.45c-.28-.21-.57-.41-.86-.61h0l0,0h-.21l0,0h0c-.21-.15-.43-.29-.65-.43ZM71.15,61l-.26.49c.64.34,1.28.71,1.91,1.08l.29-.48q-.75-.45-1.53-.87h-.13l-.05,0h0L71.15,61Zm-3-1.43-.21.51c.67.29,1.34.59,2,.91l.24-.5c-.47-.23-.94-.45-1.42-.66h0l-.09,0h0l-.06,0h0l-.06,0h0l-.32-.14ZM65,58.38l-.17.53c.69.22,1.39.47,2.07.73l.2-.52-.5-.19h-.16l0,0h-.05l-.87-.31h0l0,0h-.24l-.17,0Zm-3.22-.89-.12.54c.71.17,1.42.35,2.12.56l.16-.54-.61-.17h-1l-.54-.13Zm-3.29-.61-.07.55c.72.11,1.45.23,2.16.37l.11-.54-.42-.08H60c-.5-.09-1-.18-1.52-.25Zm-3.32-.32,0,.56c.73,0,1.46.1,2.19.18l.06-.56-1.13-.11H55.16ZM53,56.5v.56h1v-.56H53Z"/><circle class="cls-5" cx="35" cy="95.5" r="10.72"/><path class="cls-6" d="M35,85.06A10.44,10.44,0,1,1,24.56,95.5,10.46,10.46,0,0,1,35,85.06m0-.56a11,11,0,1,0,11,11,11,11,0,0,0-11-11Z"/><circle class="cls-5" cx="24" cy="57.5" r="7"/><circle class="cls-5" cx="82" cy="133.5" r="7"/><circle class="cls-5" cx="71" cy="95.5" r="10.72"/><path class="cls-6" d="M71,85.06A10.44,10.44,0,1,1,60.56,95.5,10.46,10.46,0,0,1,71,85.06m0-.56a11,11,0,1,0,11,11,11,11,0,0,0-11-11Z"/><circle class="cls-5" cx="53" cy="113.5" r="10.72"/><path class="cls-6" d="M53,103.06A10.44,10.44,0,1,1,42.56,113.5,10.46,10.46,0,0,1,53,103.06m0-.56a11,11,0,1,0,11,11,11,11,0,0,0-11-11Z"/><circle class="cls-5" cx="53" cy="76.5" r="10.72"/><path class="cls-6" d="M53,66.06A10.44,10.44,0,1,1,42.56,76.5,10.46,10.46,0,0,1,53,66.06m0-.56a11,11,0,1,0,11,11,11,11,0,0,0-11-11Z"/><circle class="cls-5" cx="23.82" cy="136.2" r="4"/><path class="cls-7" d="M49.34,94.62l2,1.9-2-1.9-2-1.9Z"/><circle class="cls-8" cx="52.5" cy="97" r="1.5"/><line class="cls-9" x1="36.42" y1="82.47" x2="47.32" y2="92.72"/><line class="cls-10" x1="36.42" y1="82.47" x2="47.32" y2="92.72"/><path class="cls-7" d="M55.53,94.78l-2.11,1.79,2.11-1.79L57.65,93Z"/><circle class="cls-8" cx="52.5" cy="97" r="1.5"/><line class="cls-9" x1="78.81" y1="75.04" x2="57.65" y2="92.99"/><line class="cls-10" x1="78.81" y1="75.04" x2="57.65" y2="92.99"/><circle class="cls-5" cx="83.93" cy="55.5" r="4"/><path class="cls-5" d="M89.18,74.88a1.41,1.41,0,0,1-1-.62A47.05,47.05,0,0,0,73,59.84a1.39,1.39,0,0,1,1.41-2.39A50,50,0,0,1,90.45,72.73a1.38,1.38,0,0,1-.39,1.92A1.41,1.41,0,0,1,89.18,74.88Z"/><path class="cls-5" d="M70.13,58.32A47.23,47.23,0,0,0,61,54.87l1-2.59a51.41,51.41,0,0,1,9.27,3.52Z"/><path class="cls-5" d="M32.54,133.84a2.45,2.45,0,0,1,1.52-2.25,40.63,40.63,0,0,1-13.57-11.54,1.39,1.39,0,0,0-2.21,1.67,43.29,43.29,0,0,0,14.27,12.21S32.54,133.87,32.54,133.84Z"/><path class="cls-5" d="M40.9,134.43c-1.23-.38-2.44-.83-3.62-1.32a2.54,2.54,0,0,1,.12.73,2.39,2.39,0,0,1-.95,1.92q1.78.74,3.63,1.32a1.51,1.51,0,0,0,.41.06,1.39,1.39,0,0,0,.41-2.71Z"/><circle class="cls-5" cx="35.32" cy="133.7" r="1.5"/><line class="cls-11" x1="52.5" y1="90.5" x2="52.5" y2="131.5"/><circle class="cls-12" cx="52.5" cy="97" r="1"/><circle class="cls-6" cx="52.5" cy="97" r="0.5"/></svg>